<svg width="1600" height="1200" viewBox="0 0 1600 1200" fill="none" xmlns="http://www.w3.org/2000/svg">
  <defs>
    <linearGradient id="bg" x1="0" y1="0" x2="1600" y2="1200" gradientUnits="userSpaceOnUse">
      <stop stop-color="#1D4ED8"/>
      <stop offset="0.55" stop-color="#4F46E5"/>
      <stop offset="1" stop-color="#7C3AED"/>
    </linearGradient>
    <radialGradient id="glow1" cx="0" cy="0" r="1" gradientUnits="userSpaceOnUse" gradientTransform="translate(320 260) rotate(20) scale(460 330)">
      <stop stop-color="white" stop-opacity="0.45"/>
      <stop offset="1" stop-color="white" stop-opacity="0"/>
    </radialGradient>
    <radialGradient id="glow2" cx="0" cy="0" r="1" gradientUnits="userSpaceOnUse" gradientTransform="translate(1240 980) rotate(-12) scale(520 360)">
      <stop stop-color="#C4B5FD" stop-opacity="0.5"/>
      <stop offset="1" stop-color="#C4B5FD" stop-opacity="0"/>
    </radialGradient>
    <linearGradient id="line" x1="0" y1="0" x2="1" y2="1">
      <stop stop-color="white" stop-opacity="0.24"/>
      <stop offset="1" stop-color="white" stop-opacity="0.02"/>
    </linearGradient>
  </defs>

  <rect width="1600" height="1200" fill="url(#bg)"/>
  <rect width="1600" height="1200" fill="url(#glow1)"/>
  <rect width="1600" height="1200" fill="url(#glow2)"/>

  <g opacity="0.35">
    <path d="M-120 780C180 620 410 640 700 790C1010 955 1250 930 1710 700" stroke="url(#line)" stroke-width="2"/>
    <path d="M-180 900C120 740 360 760 650 900C970 1055 1240 1030 1740 820" stroke="url(#line)" stroke-width="2"/>
    <path d="M-100 660C200 500 430 520 730 670C1040 830 1270 810 1720 570" stroke="url(#line)" stroke-width="2"/>
  </g>

  <g opacity="0.25">
    <circle cx="1240" cy="240" r="130" fill="white"/>
    <circle cx="1360" cy="320" r="65" fill="white"/>
    <circle cx="1160" cy="340" r="40" fill="white"/>
  </g>
</svg>
